<?xml version="1.0" standalone="no"?>
<!DOCTYPE svg PUBLIC "-//W3C//DTD SVG 20010904//EN"
 "http://www.w3.org/TR/2001/REC-SVG-20010904/DTD/svg10.dtd">
<svg version="1.0" xmlns="http://www.w3.org/2000/svg"
 width="100.000000pt" height="100.000000pt" viewBox="0 0 100.000000 100.000000"
 preserveAspectRatio="xMidYMid meet">
<metadata>
Created by potrace 1.14, written by Peter Selinger 2001-2017
</metadata>
<g transform="translate(0.000000,100.000000) scale(0.100000,-0.100000)"
fill="#000000" stroke="none">
<path d="M955 991 c-6 -4 -53 -31 -105 -59 -516 -276 -845 -460 -845 -472 0
-13 49 -33 267 -105 10 -4 15 -14 13 -28 -2 -12 -7 -49 -10 -82 -3 -33 -8 -85
-11 -116 -11 -100 10 -90 156 79 l46 53 133 -131 c73 -71 137 -130 142 -130 5
0 14 10 19 23 20 46 241 957 235 967 -8 12 -28 13 -40 1z m-102 -433 c-51
-205 -100 -401 -110 -436 l-16 -63 -117 116 -118 117 174 240 c96 132 174 246
174 254 0 8 -6 14 -14 14 -8 0 -124 -89 -258 -198 -134 -109 -249 -201 -255
-205 -10 -6 -233 59 -233 68 0 4 156 90 330 183 52 28 190 103 305 166 116 63
215 115 220 116 6 0 -31 -168 -82 -372z m-211 10 c-37 -51 -102 -140 -145
-198 -42 -58 -102 -132 -132 -165 l-57 -60 7 82 c8 105 12 124 27 139 18 17
362 294 365 294 2 0 -28 -42 -65 -92z"/>
</g>
</svg>
